{
    "asset" : {
        "generator" : "Khronos glTF Blender I/O v1.7.33",
        "version" : "2.0"
    },
    "scene" : 0,
    "scenes" : [
        {
            "name" : "Scene",
            "nodes" : [
                0,
                1,
                2,
                3
            ]
        }
    ],
    "nodes" : [
        {
            "mesh" : 0,
            "name" : "Leg1",
            "rotation" : [
                0,
                0,
                0.07632027566432953,
                0.9970833659172058
            ],
            "scale" : [
                0.25,
                0.25,
                0.25
            ],
            "translation" : [
                -1.9837453365325928,
                1.8419387340545654,
                0
            ]
        },
        {
            "mesh" : 1,
            "name" : "Leg3",
            "rotation" : [
                0.06609530001878738,
                0.8634995222091675,
                0.038160137832164764,
                0.4985416531562805
            ],
            "scale" : [
                0.25,
                0.25,
                0.25
            ],
            "translation" : [
                0.9992480278015137,
                1.8419387340545654,
                1.6677350997924805
            ]
        },
        {
            "mesh" : 2,
            "name" : "Leg2",
            "rotation" : [
                -0.06609530001878738,
                -0.8634995222091675,
                0.038160137832164764,
                0.4985416531562805
            ],
            "scale" : [
                0.25,
                0.25,
                0.25
            ],
            "translation" : [
                0.948888897895813,
                1.8419387340545654,
                -1.669863224029541
            ]
        },
        {
            "mesh" : 3,
            "name" : "Lid",
            "scale" : [
                0.5,
                0.05000000074505806,
                0.5
            ],
            "translation" : [
                0,
                2.235868453979492,
                0
            ]
        }
    ],
    "materials" : [
        {
            "doubleSided" : true,
            "name" : "leg",
            "pbrMetallicRoughness" : {
                "baseColorTexture" : {
                    "index" : 0
                },
                "metallicFactor" : 0,
                "roughnessFactor" : 0.5
            }
        }
    ],
    "meshes" : [
        {
            "name" : "Cube.001",
            "primitives" : [
                {
                    "attributes" : {
                        "POSITION" : 0,
                        "NORMAL" : 1,
                        "TEXCOORD_0" : 2
                    },
                    "indices" : 3,
                    "material" : 0
                }
            ]
        },
        {
            "name" : "Cube.003",
            "primitives" : [
                {
                    "attributes" : {
                        "POSITION" : 4,
                        "NORMAL" : 5,
                        "TEXCOORD_0" : 6
                    },
                    "indices" : 3,
                    "material" : 0
                }
            ]
        },
        {
            "name" : "Cube.004",
            "primitives" : [
                {
                    "attributes" : {
                        "POSITION" : 7,
                        "NORMAL" : 8,
                        "TEXCOORD_0" : 9
                    },
                    "indices" : 3,
                    "material" : 0
                }
            ]
        },
        {
            "name" : "Cylinder.008",
            "primitives" : [
                {
                    "attributes" : {
                        "POSITION" : 10,
                        "NORMAL" : 11,
                        "TEXCOORD_0" : 12
                    },
                    "indices" : 13,
                    "material" : 0
                }
            ]
        }
    ],
    "textures" : [
        {
            "sampler" : 0,
            "source" : 0
        }
    ],
    "images" : [
        {
            "bufferView" : 4,
            "mimeType" : "image/png",
            "name" : "pallette"
        }
    ],
    "accessors" : [
        {
            "bufferView" : 0,
            "componentType" : 5126,
            "count" : 1722,
            "max" : [
                6.47873592376709,
                1.446965217590332,
                1.1688177585601807
            ],
            "min" : [
                -2.1096887588500977,
                -7.43411922454834,
                -1.1688177585601807
            ],
            "type" : "VEC3"
        },
        {
            "bufferView" : 1,
            "componentType" : 5126,
            "count" : 1722,
            "type" : "VEC3"
        },
        {
            "bufferView" : 2,
            "componentType" : 5126,
            "count" : 1722,
            "type" : "VEC2"
        },
        {
            "bufferView" : 3,
            "componentType" : 5123,
            "count" : 3864,
            "type" : "SCALAR"
        },
        {
            "bufferView" : 5,
            "componentType" : 5126,
            "count" : 1722,
            "max" : [
                6.47873592376709,
                1.446965217590332,
                1.1688177585601807
            ],
            "min" : [
                -2.1096887588500977,
                -7.43411922454834,
                -1.1688177585601807
            ],
            "type" : "VEC3"
        },
        {
            "bufferView" : 6,
            "componentType" : 5126,
            "count" : 1722,
            "type" : "VEC3"
        },
        {
            "bufferView" : 7,
            "componentType" : 5126,
            "count" : 1722,
            "type" : "VEC2"
        },
        {
            "bufferView" : 8,
            "componentType" : 5126,
            "count" : 1722,
            "max" : [
                6.47873592376709,
                1.446965217590332,
                1.1688177585601807
            ],
            "min" : [
                -2.1096887588500977,
                -7.43411922454834,
                -1.1688177585601807
            ],
            "type" : "VEC3"
        },
        {
            "bufferView" : 9,
            "componentType" : 5126,
            "count" : 1722,
            "type" : "VEC3"
        },
        {
            "bufferView" : 10,
            "componentType" : 5126,
            "count" : 1722,
            "type" : "VEC2"
        },
        {
            "bufferView" : 11,
            "componentType" : 5126,
            "count" : 192,
            "max" : [
                1,
                1,
                1
            ],
            "min" : [
                -1,
                -1,
                -1
            ],
            "type" : "VEC3"
        },
        {
            "bufferView" : 12,
            "componentType" : 5126,
            "count" : 192,
            "type" : "VEC3"
        },
        {
            "bufferView" : 13,
            "componentType" : 5126,
            "count" : 192,
            "type" : "VEC2"
        },
        {
            "bufferView" : 14,
            "componentType" : 5123,
            "count" : 372,
            "type" : "SCALAR"
        }
    ],
    "bufferViews" : [
        {
            "buffer" : 0,
            "byteLength" : 20664,
            "byteOffset" : 0
        },
        {
            "buffer" : 0,
            "byteLength" : 20664,
            "byteOffset" : 20664
        },
        {
            "buffer" : 0,
            "byteLength" : 13776,
            "byteOffset" : 41328
        },
        {
            "buffer" : 0,
            "byteLength" : 7728,
            "byteOffset" : 55104
        },
        {
            "buffer" : 0,
            "byteLength" : 121347,
            "byteOffset" : 62832
        },
        {
            "buffer" : 0,
            "byteLength" : 20664,
            "byteOffset" : 184180
        },
        {
            "buffer" : 0,
            "byteLength" : 20664,
            "byteOffset" : 204844
        },
        {
            "buffer" : 0,
            "byteLength" : 13776,
            "byteOffset" : 225508
        },
        {
            "buffer" : 0,
            "byteLength" : 20664,
            "byteOffset" : 239284
        },
        {
            "buffer" : 0,
            "byteLength" : 20664,
            "byteOffset" : 259948
        },
        {
            "buffer" : 0,
            "byteLength" : 13776,
            "byteOffset" : 280612
        },
        {
            "buffer" : 0,
            "byteLength" : 2304,
            "byteOffset" : 294388
        },
        {
            "buffer" : 0,
            "byteLength" : 2304,
            "byteOffset" : 296692
        },
        {
            "buffer" : 0,
            "byteLength" : 1536,
            "byteOffset" : 298996
        },
        {
            "buffer" : 0,
            "byteLength" : 744,
            "byteOffset" : 300532
        }
    ],
    "samplers" : [
        {
            "magFilter" : 9729,
            "minFilter" : 9987
        }
    ],
    "buffers" : [
        {
            "byteLength" : 301276,
            "uri" : "data:application/octet-stream;base64,"
        }
    ]
}
