{
    "asset" : {
        "generator" : "Khronos glTF Blender I/O v1.2.75",
        "version" : "2.0"
    },
    "scene" : 0,
    "scenes" : [
        {
            "name" : "Scene",
            "nodes" : [
                0
            ]
        }
    ],
    "nodes" : [
        {
            "mesh" : 0,
            "name" : "Cube",
            "rotation" : [
                0,
                0,
                0.07632027566432953,
                0.9970833659172058
            ],
            "scale" : [
                0.25,
                0.25,
                0.25
            ],
            "translation" : [
                -1.9837453365325928,
                1.8419387340545654,
                0
            ]
        }
    ],
    "meshes" : [
        {
            "name" : "Cube.001",
            "primitives" : [
                {
                    "attributes" : {
                        "POSITION" : 0,
                        "NORMAL" : 1,
                        "TEXCOORD_0" : 2
                    },
                    "indices" : 3
                }
            ]
        }
    ],
    "accessors" : [
        {
            "bufferView" : 0,
            "componentType" : 5126,
            "count" : 7266,
            "max" : [
                13.095218658447266,
                1.446965217590332,
                8.0158109664917
            ],
            "min" : [
                -2.1096887588500977,
                -9.249785423278809,
                -8.024323463439941
            ],
            "type" : "VEC3"
        },
        {
            "bufferView" : 1,
            "componentType" : 5126,
            "count" : 7266,
            "type" : "VEC3"
        },
        {
            "bufferView" : 2,
            "componentType" : 5126,
            "count" : 7266,
            "type" : "VEC2"
        },
        {
            "bufferView" : 3,
            "componentType" : 5123,
            "count" : 13620,
            "type" : "SCALAR"
        }
    ],
    "bufferViews" : [
        {
            "buffer" : 0,
            "byteLength" : 87192,
            "byteOffset" : 0
        },
        {
            "buffer" : 0,
            "byteLength" : 87192,
            "byteOffset" : 87192
        },
        {
            "buffer" : 0,
            "byteLength" : 58128,
            "byteOffset" : 174384
        },
        {
            "buffer" : 0,
            "byteLength" : 27240,
            "byteOffset" : 232512
        }
    ],
    "buffers" : [
        {
            "byteLength" : 259752,
            "uri" : "data:application/octet-stream;base64,"
        }
    ]
}
