{
    "asset" : {
        "generator" : "Khronos glTF Blender I/O v1.7.33",
        "version" : "2.0"
    },
    "scene" : 0,
    "scenes" : [
        {
            "name" : "Scene",
            "nodes" : [
                0,
                1
            ]
        }
    ],
    "nodes" : [
        {
            "mesh" : 0,
            "name" : "Leg1"
        },
        {
            "mesh" : 1,
            "name" : "Lid",
            "scale" : [
                0.5,
                0.05000000074505806,
                0.5
            ],
            "translation" : [
                0,
                2.235868453979492,
                0
            ]
        }
    ],
    "materials" : [
        {
            "doubleSided" : true,
            "name" : "leg",
            "pbrMetallicRoughness" : {
                "baseColorTexture" : {
                    "index" : 0
                },
                "metallicFactor" : 0,
                "roughnessFactor" : 0.5
            }
        }
    ],
    "meshes" : [
        {
            "name" : "Cube.001",
            "primitives" : [
                {
                    "attributes" : {
                        "POSITION" : 0,
                        "NORMAL" : 1,
                        "TEXCOORD_0" : 2
                    },
                    "indices" : 3,
                    "material" : 0
                }
            ]
        },
        {
            "name" : "Cylinder.008",
            "primitives" : [
                {
                    "attributes" : {
                        "POSITION" : 4,
                        "NORMAL" : 5,
                        "TEXCOORD_0" : 6
                    },
                    "indices" : 7,
                    "material" : 0
                }
            ]
        }
    ],
    "textures" : [
        {
            "sampler" : 0,
            "source" : 0
        }
    ],
    "images" : [
        {
            "bufferView" : 4,
            "mimeType" : "image/png",
            "name" : "pallette"
        }
    ],
    "accessors" : [
        {
            "bufferView" : 0,
            "componentType" : 5126,
            "count" : 8197,
            "max" : [
                1.3195933103561401,
                2.272057056427002,
                2.040449380874634
            ],
            "min" : [
                -2.2337453365325928,
                2.9802322387695312e-08,
                -2.040405511856079
            ],
            "type" : "VEC3"
        },
        {
            "bufferView" : 1,
            "componentType" : 5126,
            "count" : 8197,
            "type" : "VEC3"
        },
        {
            "bufferView" : 2,
            "componentType" : 5126,
            "count" : 8197,
            "type" : "VEC2"
        },
        {
            "bufferView" : 3,
            "componentType" : 5123,
            "count" : 15984,
            "type" : "SCALAR"
        },
        {
            "bufferView" : 5,
            "componentType" : 5126,
            "count" : 604,
            "max" : [
                1,
                1,
                1
            ],
            "min" : [
                -1,
                -14.376974105834961,
                -1
            ],
            "type" : "VEC3"
        },
        {
            "bufferView" : 6,
            "componentType" : 5126,
            "count" : 604,
            "type" : "VEC3"
        },
        {
            "bufferView" : 7,
            "componentType" : 5126,
            "count" : 604,
            "type" : "VEC2"
        },
        {
            "bufferView" : 8,
            "componentType" : 5123,
            "count" : 1140,
            "type" : "SCALAR"
        }
    ],
    "bufferViews" : [
        {
            "buffer" : 0,
            "byteLength" : 98364,
            "byteOffset" : 0
        },
        {
            "buffer" : 0,
            "byteLength" : 98364,
            "byteOffset" : 98364
        },
        {
            "buffer" : 0,
            "byteLength" : 65576,
            "byteOffset" : 196728
        },
        {
            "buffer" : 0,
            "byteLength" : 31968,
            "byteOffset" : 262304
        },
        {
            "buffer" : 0,
            "byteLength" : 121347,
            "byteOffset" : 294272
        },
        {
            "buffer" : 0,
            "byteLength" : 7248,
            "byteOffset" : 415620
        },
        {
            "buffer" : 0,
            "byteLength" : 7248,
            "byteOffset" : 422868
        },
        {
            "buffer" : 0,
            "byteLength" : 4832,
            "byteOffset" : 430116
        },
        {
            "buffer" : 0,
            "byteLength" : 2280,
            "byteOffset" : 434948
        }
    ],
    "samplers" : [
        {
            "magFilter" : 9729,
            "minFilter" : 9987
        }
    ],
    "buffers" : [
        {
            "byteLength" : 437228,
            "uri" : "data:application/octet-stream;base64,"
        }
    ]
}
