{
    "asset" : {
        "generator" : "Khronos glTF Blender I/O v1.8.19",
        "version" : "2.0"
    },
    "scene" : 0,
    "scenes" : [
        {
            "name" : "Scene",
            "nodes" : [
                0,
                1
            ]
        }
    ],
    "nodes" : [
        {
            "mesh" : 0,
            "name" : "Leg1"
        },
        {
            "mesh" : 1,
            "name" : "Lid",
            "rotation" : [
                1,
                0,
                0,
                -1.6292068494294654e-07
            ],
            "scale" : [
                0.5,
                0.05000000074505806,
                0.5
            ],
            "translation" : [
                0,
                1.7050557136535645,
                0
            ]
        }
    ],
    "materials" : [
        {
            "doubleSided" : true,
            "name" : "leg",
            "pbrMetallicRoughness" : {
                "baseColorTexture" : {
                    "index" : 0
                },
                "metallicFactor" : 0,
                "roughnessFactor" : 0.5
            }
        }
    ],
    "meshes" : [
        {
            "name" : "Cube.001",
            "primitives" : [
                {
                    "attributes" : {
                        "POSITION" : 0,
                        "NORMAL" : 1,
                        "TEXCOORD_0" : 2
                    },
                    "indices" : 3,
                    "material" : 0
                }
            ]
        },
        {
            "name" : "Cylinder.008",
            "primitives" : [
                {
                    "attributes" : {
                        "POSITION" : 4,
                        "NORMAL" : 5,
                        "TEXCOORD_0" : 6
                    },
                    "indices" : 7,
                    "material" : 0
                }
            ]
        }
    ],
    "textures" : [
        {
            "sampler" : 0,
            "source" : 0
        }
    ],
    "images" : [
        {
            "bufferView" : 4,
            "mimeType" : "image/png",
            "name" : "pallette"
        }
    ],
    "accessors" : [
        {
            "bufferView" : 0,
            "componentType" : 5126,
            "count" : 7286,
            "max" : [
                1.2334226369857788,
                2.2482857704162598,
                1.914732575416565
            ],
            "min" : [
                -2.110358715057373,
                2.9802322387695312e-08,
                -1.9146900177001953
            ],
            "type" : "VEC3"
        },
        {
            "bufferView" : 1,
            "componentType" : 5126,
            "count" : 7286,
            "type" : "VEC3"
        },
        {
            "bufferView" : 2,
            "componentType" : 5126,
            "count" : 7286,
            "type" : "VEC2"
        },
        {
            "bufferView" : 3,
            "componentType" : 5123,
            "count" : 12978,
            "type" : "SCALAR"
        },
        {
            "bufferView" : 5,
            "componentType" : 5126,
            "count" : 902,
            "max" : [
                1,
                1,
                1
            ],
            "min" : [
                -1,
                -12.659258842468262,
                -1
            ],
            "type" : "VEC3"
        },
        {
            "bufferView" : 6,
            "componentType" : 5126,
            "count" : 902,
            "type" : "VEC3"
        },
        {
            "bufferView" : 7,
            "componentType" : 5126,
            "count" : 902,
            "type" : "VEC2"
        },
        {
            "bufferView" : 8,
            "componentType" : 5123,
            "count" : 1524,
            "type" : "SCALAR"
        }
    ],
    "bufferViews" : [
        {
            "buffer" : 0,
            "byteLength" : 87432,
            "byteOffset" : 0
        },
        {
            "buffer" : 0,
            "byteLength" : 87432,
            "byteOffset" : 87432
        },
        {
            "buffer" : 0,
            "byteLength" : 58288,
            "byteOffset" : 174864
        },
        {
            "buffer" : 0,
            "byteLength" : 25956,
            "byteOffset" : 233152
        },
        {
            "buffer" : 0,
            "byteLength" : 121347,
            "byteOffset" : 259108
        },
        {
            "buffer" : 0,
            "byteLength" : 10824,
            "byteOffset" : 380456
        },
        {
            "buffer" : 0,
            "byteLength" : 10824,
            "byteOffset" : 391280
        },
        {
            "buffer" : 0,
            "byteLength" : 7216,
            "byteOffset" : 402104
        },
        {
            "buffer" : 0,
            "byteLength" : 3048,
            "byteOffset" : 409320
        }
    ],
    "samplers" : [
        {
            "magFilter" : 9729,
            "minFilter" : 9987
        }
    ],
    "buffers" : [
        {
            "byteLength" : 412368,
            "uri" : "data:application/octet-stream;base64,"
        }
    ]
}
